/* XPM */
static char *_1790c495f854d1f9aabd146fdddc54dmLwZGElzqmC1DHDJ[] = {
/* columns rows colors chars-per-pixel */
"128 128 4 1 ",
"  c None",
". c #818181",
"X c gray51",
"o c #838383",
/* pixels */
"                                                   ....                                                                         ",
"                                                  ......                                                                        ",
"                                                 .......                                                                        ",
"                                                 ........                                                                       ",
"                                                 ........                                                                       ",
"                                                 ........                                                                       ",
"                                                 ........                                                                       ",
"                                                 ........                     ..                                                ",
"                                                 ........                   o.....                                              ",
"                                                 ........                   ......                                              ",
"                                                 ........                  ........                                             ",
"                                                 ........                 .........                                             ",
"                                                 .......                  ........                                              ",
"                                                  ......                 .........                                              ",
"                                                  .....                  ........                                               ",
"                                                                        .........                                               ",
"                                                                        ........                                                ",
"                                                                       .........                                                ",
"                                                                        .......                                                 ",
"                                                                        ......                                                  ",
"                                                                         ....                                                   ",
"                                                                                                                                ",
"                                                                                                                                ",
"                                             .o.............                                                                    ",
"                                          o.....................                                                                ",
"                                       ...........................                                                              ",
"                                     ...............................                              .                             ",
"                                   ...................................                          .....                           ",
"                                  ......................................                      ........                          ",
"                                 ........................................                   o.........                          ",
"                               ...........................................                ............                          ",
"                              .............................................              .............                          ",
"                             ...............................................            .............                           ",
"                            .................................................           ............                            ",
"                           ...................................................          ..........                              ",
"                           ....................................................         .........                               ",
"                          ......................................................         ......                                 ",
"                         ........................................................         ...                                   ",
"                        .........................................................                                               ",
"                        ..........................................................                                              ",
"                       ...........................................................                                              ",
"                       ............................................................                                             ",
"                      .............................................................                                             ",
"                      ..............................................................                                            ",
"                     ...............................................................                                            ",
"                     ................................................................                                           ",
"                     ................................................................                                           ",
"                    .................................................................                                           ",
"                    .................................................................                                           ",
"                    ..................................................................                                          ",
"                   ...................................................................                                          ",
"                   ...................................................................                                          ",
"                   ...................................................................                                          ",
"                   ...................................................................          ...........                     ",
"                   ...................................................................         .............                    ",
"                   ....................................................................       ...............                   ",
"                   ....................................................................       ...............                   ",
"                   ....................................................................       ...............                   ",
"                   ...................................................................         .............                    ",
"                   ...................................................................         ............                     ",
"                   ...................................................................                                          ",
"                   ...................................................................                                          ",
"                    ..................................................................                                          ",
"                    ..................................................................                                          ",
"                    ..................................................................                                          ",
"                    .................................................................                                           ",
"                    .................................................................                                           ",
"                     ................................................................                                           ",
"                     ...............................................................                                            ",
"                      ..............................................................                                            ",
"                      .............................................................                                             ",
"                      .............................................................                                             ",
"                       ............................................................                                             ",
"                        ..........................................................                                              ",
"                        .........................................................                                               ",
"                         ........................................................                                               ",
"                          ......................................................                                                ",
"                          .....................  ........  ....................                                                 ",
"                           ...................    .....     ...................                                                 ",
"                            .................      ...      .................o                                                  ",
"                            ..................      .       .................                                                   ",
"                             .................             ..................                                                   ",
"                             ..................           ..................                                                    ",
"                              ..................         ..................                                                     ",
"                              ...................       ...................                                                     ",
"                               ...................     ...................                                                      ",
"                               ...................     ...................                                                      ",
"                                ..................     ..................                                                       ",
"                                ..................     ..................                                                       ",
"                                 .................     .................                                                        ",
"                                 .................     .................                                                        ",
"                                  ................     .................                                                        ",
"                                  ................     ................                                                         ",
"                                  ................     ................                                                         ",
"                                   ................    ................                                                         ",
"                                   .................  ................                                                          ",
"                                   ...................................                                                          ",
"                                    ..................................                                                          ",
"                                    .................................                                                           ",
"                                    .................................                                                           ",
"                                    .................................                                                           ",
"                                     ................................                                                           ",
"                                     ................................                                                           ",
"                                     ................................                                                           ",
"                                     ...............................                                                            ",
"                                                                                                                                ",
"                                                                                                                                ",
"                                                                                                                                ",
"                                                                                                                                ",
"                                                                                                                                ",
"                                                                                                                                ",
"                                                                                                                                ",
"                                                                                                                                ",
"                                      ..............................                                                            ",
"                                      ..............................                                                            ",
"                                      ..............................                                                            ",
"                                      .............................                                                             ",
"                                      .............................                                                             ",
"                                       ............................                                                             ",
"                                       ...........................                                                              ",
"                                        ..........................                                                              ",
"                                        .........................                                                               ",
"                                         .......................                                                                ",
"                                          ......................                                                                ",
"                                           ...................                                                                  ",
"                                            .................                                                                   ",
"                                              ............o                                                                     ",
"                                                 oo....o.                                                                       "
};
