<svg width="128" height="128" viewBox="0 0 128 128" fill="none" xmlns="http://www.w3.org/2000/svg">
<g clip-path="url(#clip0)">
<path fill-rule="evenodd" clip-rule="evenodd" d="M48.9972 11.5C48.9972 13.5728 50.6745 15.25 52.7472 15.25C54.82 15.25 56.4972 13.5728 56.4972 11.5V3.75C56.4972 1.67725 54.82 0 52.7472 0C50.6745 0 48.9972 1.67725 48.9972 3.75V11.5ZM89.8445 30.7518C88.05 31.788 87.4348 34.0805 88.4713 35.875C89.5083 37.6711 91.8063 38.2813 93.5945 37.2483L100.088 33.4983C101.882 32.462 102.497 30.1695 101.461 28.375C100.421 26.5733 98.1245 25.958 96.3375 27.0018L89.8445 30.7518ZM73.3722 20.7758C71.5777 19.7393 70.9624 17.4471 71.9989 15.6526L75.7489 9.15957C76.7854 7.35406 79.0777 6.74631 80.8722 7.78631C82.6667 8.82282 83.2819 11.1151 82.2454 12.9096L78.4954 19.4026C77.4564 21.2018 75.1569 21.8068 73.3722 20.7758ZM97.7474 60.25H105.247C107.32 60.25 108.997 58.5728 108.997 56.5C108.997 54.4273 107.32 52.75 105.247 52.75H97.7474C95.6746 52.75 93.9974 54.4273 93.9974 56.5C93.9974 58.5728 95.6746 60.25 97.7474 60.25ZM52.7471 128C61.0198 128 67.7471 121.273 67.7471 113H37.7723C37.9078 121.431 44.4231 128 52.7471 128ZM19.4073 51.1754C21.1208 40.0269 31.7536 22.7163 52.7471 22.7541C75.4396 22.7948 86.4972 42.3404 86.4972 56.5001C86.4972 63.9086 84.1352 70.9362 79.6674 76.8282C73.1716 85.3852 69.3964 95.1237 68.2594 105.25H37.2038C36.0056 95.4259 32.1146 85.6339 25.2668 76.0667C20.1251 68.8816 18.0451 60.0414 19.4073 51.1754ZM56.0036 77.9154C56.9874 77.0136 58.5814 77.0136 59.5651 77.9154C60.5491 78.8172 60.5491 80.2782 59.5651 81.1802L55.2658 85.1212V93.4003C55.2658 94.6764 54.1393 95.7091 52.7472 95.7091C51.355 95.7091 50.2285 94.6764 50.2285 93.4003V85.1212L45.929 81.18C44.9452 80.2782 44.9452 78.8171 45.929 77.9153C46.9128 77.0135 48.5067 77.0135 49.4905 77.9153L52.7472 80.9005L56.0036 77.9154Z" fill="#828282"/>
</g>
<defs>
<clipPath id="clip0">
<rect width="128" height="128" fill="white"/>
</clipPath>
</defs>
</svg>
